<svg width="24" height="24" viewBox="0 0 24 24" fill="none" xmlns="http://www.w3.org/2000/svg">
<path d="M14.0259 8.03536L5.62593 16.2854C5.48565 16.4233 5.29676 16.5007 5.09999 16.5007C4.90322 16.5007 4.71433 16.4233 4.57405 16.2854L0.974052 12.7501C0.903816 12.681 0.847871 12.5988 0.809411 12.5081C0.770952 12.4174 0.750731 12.32 0.749904 12.2215C0.749077 12.123 0.76766 12.0253 0.804591 11.934C0.841522 11.8427 0.896079 11.7595 0.965146 11.6893C1.03421 11.619 1.11644 11.5631 1.20713 11.5246C1.29781 11.4862 1.39519 11.4659 1.49369 11.4651C1.59219 11.4643 1.6899 11.4829 1.78122 11.5198C1.87254 11.5567 1.95569 11.6113 2.02593 11.6804L5.09999 14.6991L12.975 6.96474C13.117 6.82525 13.3085 6.74788 13.5076 6.74963C13.6061 6.75051 13.7035 6.77078 13.7942 6.80929C13.8849 6.84781 13.9672 6.90382 14.0362 6.97411C14.1053 7.04441 14.1599 7.12763 14.1968 7.219C14.2337 7.31038 14.2522 7.40813 14.2513 7.50668C14.2505 7.60523 14.2302 7.70264 14.1917 7.79335C14.1532 7.88406 14.0972 7.9663 14.0269 8.03536H14.0259ZM23.0353 6.97411C22.9663 6.90376 22.884 6.84771 22.7933 6.80916C22.7026 6.77061 22.6052 6.75032 22.5066 6.74945C22.4081 6.74858 22.3103 6.76714 22.2189 6.80409C22.1275 6.84103 22.0443 6.89562 21.9741 6.96474L14.0991 14.6991L12.3337 12.9647C12.1918 12.8254 12.0002 12.7481 11.8013 12.75C11.6024 12.7518 11.4123 12.8326 11.273 12.9746C11.1336 13.1166 11.0563 13.3081 11.0582 13.507C11.06 13.7059 11.1408 13.896 11.2828 14.0354L13.5731 16.2854C13.7134 16.4233 13.9023 16.5007 14.0991 16.5007C14.2958 16.5007 14.4847 16.4233 14.625 16.2854L23.025 8.03536C23.0954 7.96639 23.1515 7.88421 23.1902 7.79353C23.2288 7.70285 23.2492 7.60544 23.2501 7.50688C23.2511 7.40831 23.2326 7.31053 23.1957 7.21911C23.1589 7.1277 23.1044 7.04444 23.0353 6.97411Z" fill="#329993"/>
</svg>
