<svg width="15" height="18" viewBox="0 0 15 18" fill="none" xmlns="http://www.w3.org/2000/svg">
<path d="M14.3797 8.55781C14.4378 8.61586 14.4839 8.68479 14.5153 8.76066C14.5468 8.83653 14.563 8.91786 14.563 9C14.563 9.08213 14.5468 9.16346 14.5153 9.23934C14.4839 9.31521 14.4378 9.38414 14.3797 9.44219L7.96952 15.8484C7.14891 16.669 6.03595 17.1299 4.8755 17.1298C3.71504 17.1297 2.60215 16.6687 1.78163 15.848C0.96112 15.0274 0.500201 13.9145 0.500275 12.754C0.500348 11.5936 0.961407 10.4807 1.78202 9.66015L9.53671 1.7914C10.1226 1.20492 10.9174 0.875196 11.7464 0.874756C12.5754 0.874317 13.3705 1.2032 13.957 1.78906C14.5435 2.37492 14.8732 3.16976 14.8737 3.99873C14.8741 4.8277 14.5452 5.62289 13.9594 6.20937L6.20312 14.0781C5.85088 14.4304 5.37314 14.6283 4.87499 14.6283C4.37685 14.6283 3.89911 14.4304 3.54687 14.0781C3.19463 13.7259 2.99674 13.2481 2.99674 12.75C2.99674 12.2519 3.19463 11.7741 3.54687 11.4219L10.0547 4.81094C10.1117 4.75012 10.1803 4.70133 10.2564 4.66742C10.3326 4.63351 10.4147 4.61518 10.4981 4.6135C10.5814 4.61183 10.6643 4.62684 10.7417 4.65765C10.8192 4.68847 10.8897 4.73446 10.9491 4.79293C11.0085 4.8514 11.0556 4.92117 11.0876 4.99812C11.1197 5.07507 11.136 5.15765 11.1357 5.24101C11.1353 5.32437 11.1183 5.40681 11.0856 5.48349C11.0529 5.56016 11.0052 5.62953 10.9453 5.6875L4.43671 12.3055C4.37844 12.3633 4.33212 12.432 4.30041 12.5077C4.26869 12.5834 4.2522 12.6646 4.25187 12.7467C4.25155 12.8288 4.26739 12.9102 4.2985 12.9861C4.32962 13.0621 4.37538 13.1312 4.4332 13.1895C4.49101 13.2477 4.55973 13.294 4.63545 13.3258C4.71116 13.3575 4.79237 13.374 4.87446 13.3743C4.95655 13.3746 5.03789 13.3588 5.11385 13.3277C5.18982 13.2965 5.25891 13.2508 5.31718 13.193L13.0726 5.32812C13.4249 4.97661 13.6231 4.49956 13.6236 4.00193C13.6241 3.5043 13.4269 3.02685 13.0754 2.67461C12.7239 2.32237 12.2468 2.12419 11.7492 2.12368C11.2516 2.12317 10.7741 2.32036 10.4219 2.67187L2.66874 10.5375C2.3783 10.8275 2.14781 11.1718 1.99044 11.5509C1.83308 11.93 1.75192 12.3363 1.75159 12.7467C1.75126 13.1572 1.83178 13.5636 1.98854 13.9429C2.1453 14.3223 2.37524 14.667 2.66523 14.9574C2.95521 15.2479 3.29957 15.4784 3.67863 15.6357C4.05769 15.7931 4.46403 15.8742 4.87446 15.8746C5.28489 15.8749 5.69136 15.7944 6.07067 15.6376C6.44998 15.4809 6.7947 15.2509 7.08515 14.9609L13.4961 8.55469C13.6137 8.43798 13.7728 8.37275 13.9385 8.37333C14.1042 8.37392 14.2629 8.44027 14.3797 8.55781Z" fill="#758A89"/>
</svg>
