<svg width="14" height="18" viewBox="0 0 14 18" fill="none" xmlns="http://www.w3.org/2000/svg">
<path d="M12.625 1.49999H9.79219C9.44101 1.10681 9.01076 0.792226 8.52958 0.576836C8.04841 0.361446 7.52718 0.250107 7 0.250107C6.47282 0.250107 5.95158 0.361446 5.47041 0.576836C4.98924 0.792226 4.55899 1.10681 4.20781 1.49999H1.375C1.04348 1.49999 0.725537 1.63169 0.491116 1.86611C0.256696 2.10053 0.125 2.41847 0.125 2.74999V15.875C0.125 16.2065 0.256696 16.5245 0.491116 16.7589C0.725537 16.9933 1.04348 17.125 1.375 17.125H12.625C12.9565 17.125 13.2745 16.9933 13.5089 16.7589C13.7433 16.5245 13.875 16.2065 13.875 15.875V2.74999C13.875 2.41847 13.7433 2.10053 13.5089 1.86611C13.2745 1.63169 12.9565 1.49999 12.625 1.49999ZM7 1.49999C7.66304 1.49999 8.29893 1.76339 8.76777 2.23223C9.23661 2.70107 9.5 3.33695 9.5 3.99999H4.5C4.5 3.33695 4.76339 2.70107 5.23223 2.23223C5.70107 1.76339 6.33696 1.49999 7 1.49999ZM12.625 15.875H1.375V2.74999H3.46484C3.32267 3.15141 3.25001 3.57414 3.25 3.99999V4.62499C3.25 4.79075 3.31585 4.94973 3.43306 5.06694C3.55027 5.18415 3.70924 5.24999 3.875 5.24999H10.125C10.2908 5.24999 10.4497 5.18415 10.5669 5.06694C10.6842 4.94973 10.75 4.79075 10.75 4.62499V3.99999C10.75 3.57414 10.6773 3.15141 10.5352 2.74999H12.625V15.875Z" fill="#758A89"/>
</svg>
